<svg xmlns="http://www.w3.org/2000/svg" width="498.9" height="214.204" viewBox="0 0 498.9 214.204">
  <g id="Group_1251" data-name="Group 1251" transform="translate(0 0.004)">
    <g id="Group_1250" data-name="Group 1250">
      <path id="Path_1414" data-name="Path 1414" d="M239.6,103.8a1.421,1.421,0,0,0,.6.2,2.22,2.22,0,0,0,.9.1h4.5L230.3,85.9a6.789,6.789,0,0,0-1.2-1.2,3.293,3.293,0,0,0-1.3-.7,6.726,6.726,0,0,0,1.1-.7,11.3,11.3,0,0,0,1.1-1.1l14.6-16.5h-4.4a2.9,2.9,0,0,0-1.4.3,3.126,3.126,0,0,0-1.1.9L224.9,81.4a4.36,4.36,0,0,1-1.1.9,3.664,3.664,0,0,1-1.6.2h-2V65.7H215v38.4h5.2V86.5h2.4a3.75,3.75,0,0,1,1.1.1,1.884,1.884,0,0,1,.8.2,2.092,2.092,0,0,1,.6.4,3.394,3.394,0,0,1,.6.6L239,103c.1.2.3.3.4.5C239.3,103.6,239.4,103.7,239.6,103.8Z" fill="#414042"/>
      <path id="Path_1415" data-name="Path 1415" d="M262.3,76.5a7.512,7.512,0,0,0-4.8,1.6,11.792,11.792,0,0,0-3.4,4.4l-.3-4.2a1.88,1.88,0,0,0-.4-1,1.608,1.608,0,0,0-1.1-.3h-2.7v27.2h4.8V86.8a12.313,12.313,0,0,1,2.8-4.2,5.943,5.943,0,0,1,4.2-1.4,12.734,12.734,0,0,1,2.2.2,3.632,3.632,0,0,0,1.1.3.761.761,0,0,0,.8-.7l.6-3.6a8.651,8.651,0,0,0-1.7-.7A14.919,14.919,0,0,0,262.3,76.5Z" fill="#414042"/>
      <path id="Path_1416" data-name="Path 1416" d="M294.6,99.8a6.933,6.933,0,0,1-1.7,1,8.6,8.6,0,0,1-2.4.4,6.991,6.991,0,0,1-2.7-.4,10.838,10.838,0,0,1-1.9-.8c-.6-.3-.9-.6-1.3-.8a2.6,2.6,0,0,0-1-.4,1.884,1.884,0,0,0-.8.2,1.205,1.205,0,0,0-.5.5l-1.1,1.8a12.8,12.8,0,0,0,3.9,2.4,13.638,13.638,0,0,0,5.1.9,11.958,11.958,0,0,0,4.4-.7,9.889,9.889,0,0,0,3.2-1.8,7.175,7.175,0,0,0,2-2.8,8.116,8.116,0,0,0,.7-3.5,6.088,6.088,0,0,0-.6-2.8,6.154,6.154,0,0,0-1.6-2,7.1,7.1,0,0,0-2.2-1.3,20.038,20.038,0,0,0-2.6-1c-.9-.3-1.8-.6-2.6-.8a11.2,11.2,0,0,1-2.2-.9,3.978,3.978,0,0,1-1.6-1.2,2.716,2.716,0,0,1-.6-1.7,2.41,2.41,0,0,1,.4-1.5,5.8,5.8,0,0,1,1-1.2,5.978,5.978,0,0,1,1.6-.8,7.316,7.316,0,0,1,2.2-.3,8.751,8.751,0,0,1,2.4.3,7.51,7.51,0,0,1,1.8.7c.5.3.9.5,1.2.7a1.613,1.613,0,0,0,.9.3,1,1,0,0,0,1-.6l1.1-1.7a10.068,10.068,0,0,0-3.7-2.3,12.1,12.1,0,0,0-4.8-.8,13.089,13.089,0,0,0-4.1.6,8.719,8.719,0,0,0-3,1.7,7.558,7.558,0,0,0-1.9,2.5,7.306,7.306,0,0,0-.6,3,6.679,6.679,0,0,0,.6,3,6.524,6.524,0,0,0,1.6,2.1,8.841,8.841,0,0,0,2.3,1.4,27.727,27.727,0,0,0,2.6,1c.9.3,1.8.6,2.6.8a15.714,15.714,0,0,1,2.3.9,4.172,4.172,0,0,1,1.6,1.3,2.883,2.883,0,0,1,.6,1.9,4.671,4.671,0,0,1-.3,1.7C295.4,98.9,295.1,99.4,294.6,99.8Z" fill="#414042"/>
      <path id="Path_1417" data-name="Path 1417" d="M318.5,103.9a8.3,8.3,0,0,0,3-1.8l-1.4-2.3c-.2-.3-.4-.5-.7-.5a1.69,1.69,0,0,0-.5.2,4.347,4.347,0,0,1-.7.4,3,3,0,0,1-1,.4,5.067,5.067,0,0,1-1.3.2,2.865,2.865,0,0,1-2.1-.8,3.844,3.844,0,0,1-.8-2.6V81h7.8V77.5H313V68.2h-2.4a1.33,1.33,0,0,0-.8.3,1.612,1.612,0,0,0-.4.7l-1.1,8.4-4.5.6v1.9a.984.984,0,0,0,.3.8.844.844,0,0,0,.7.2h3.3V97.7a7.563,7.563,0,0,0,1.7,5.2,6.418,6.418,0,0,0,4.9,1.8A15.068,15.068,0,0,0,318.5,103.9Z" fill="#414042"/>
      <path id="Path_1418" data-name="Path 1418" d="M358.9,86.8a14.212,14.212,0,0,0-.6-4.2,8.343,8.343,0,0,0-1.8-3.2,8.125,8.125,0,0,0-3-2.1,10.191,10.191,0,0,0-4-.8,15.754,15.754,0,0,0-5.8,1.1,15.356,15.356,0,0,0-4.9,3.2l.9,1.5a1.167,1.167,0,0,0,.6.6,2.354,2.354,0,0,0,.8.2,2.843,2.843,0,0,0,1.2-.4c.4-.3.9-.6,1.5-1a10.244,10.244,0,0,1,2.1-1,8.475,8.475,0,0,1,2.9-.4,4.8,4.8,0,0,1,4,1.6,7.421,7.421,0,0,1,1.4,4.8v2.1a34.627,34.627,0,0,0-7.8.7,18.328,18.328,0,0,0-5.2,1.9,8.471,8.471,0,0,0-2.9,2.7,5.862,5.862,0,0,0-.9,3.1,7.943,7.943,0,0,0,.6,3.2,5.243,5.243,0,0,0,1.6,2.2,9.206,9.206,0,0,0,2.4,1.3,9.476,9.476,0,0,0,3,.4,12.021,12.021,0,0,0,2.8-.3,9.678,9.678,0,0,0,2.4-.8,10.706,10.706,0,0,0,2.1-1.3c.7-.5,1.4-1.1,2.1-1.7l.5,2.5q.15.75.6.9a3.6,3.6,0,0,0,1.1.2h2.1l.2-17Zm-4.7,10.8a10.992,10.992,0,0,1-1.6,1.5,7.844,7.844,0,0,1-1.8,1.1,7.959,7.959,0,0,1-2,.7,16.007,16.007,0,0,1-2.3.3,8.807,8.807,0,0,1-1.7-.2,6.109,6.109,0,0,1-1.4-.7,3.045,3.045,0,0,1-.9-1.3,4.883,4.883,0,0,1-.4-1.9,3.322,3.322,0,0,1,.7-2.1,5.084,5.084,0,0,1,2.1-1.6,14.46,14.46,0,0,1,3.8-1.1,29.916,29.916,0,0,1,5.6-.4l-.1,5.7Z" fill="#414042"/>
      <path id="Path_1419" data-name="Path 1419" d="M388.8,104.1V86.8a14.213,14.213,0,0,0-.6-4.2,11.436,11.436,0,0,0-1.7-3.3,8.26,8.26,0,0,0-2.8-2.1,9.374,9.374,0,0,0-3.9-.7,10,10,0,0,0-5,1.2,15.243,15.243,0,0,0-4,3.2l-.4-2.9a1.2,1.2,0,0,0-1.3-1h-2.8v27.2h4.8v-20a12.689,12.689,0,0,1,3.4-2.8,7.674,7.674,0,0,1,4-1,5.352,5.352,0,0,1,4.3,1.7,7.421,7.421,0,0,1,1.4,4.8v17.3l4.6-.1Z" fill="#414042"/>
      <path id="Path_1420" data-name="Path 1420" d="M411,91.1a9.8,9.8,0,0,0-2.2-1.3,20.033,20.033,0,0,0-2.6-1c-.9-.3-1.8-.6-2.6-.8a11.2,11.2,0,0,1-2.2-.9,3.978,3.978,0,0,1-1.6-1.2,2.716,2.716,0,0,1-.6-1.7,2.41,2.41,0,0,1,.4-1.5,5.8,5.8,0,0,1,1-1.2,5.978,5.978,0,0,1,1.6-.8,7.316,7.316,0,0,1,2.2-.3,8.751,8.751,0,0,1,2.4.3,7.51,7.51,0,0,1,1.8.7c.5.3.9.5,1.2.7a1.613,1.613,0,0,0,.9.3,1,1,0,0,0,1-.6l1.1-1.7a10.068,10.068,0,0,0-3.7-2.3,12.1,12.1,0,0,0-4.8-.8,13.089,13.089,0,0,0-4.1.6,8.719,8.719,0,0,0-3,1.7,7.558,7.558,0,0,0-1.9,2.5,7.306,7.306,0,0,0-.6,3,6.679,6.679,0,0,0,.6,3,6.524,6.524,0,0,0,1.6,2.1,8.842,8.842,0,0,0,2.3,1.4,27.731,27.731,0,0,0,2.6,1c.9.3,1.8.6,2.6.8a15.713,15.713,0,0,1,2.3.9,4.172,4.172,0,0,1,1.6,1.3,2.883,2.883,0,0,1,.6,1.9,4.672,4.672,0,0,1-.3,1.7,4.508,4.508,0,0,1-1,1.4,6.933,6.933,0,0,1-1.7,1,8.6,8.6,0,0,1-2.4.4,6.991,6.991,0,0,1-2.7-.4,10.838,10.838,0,0,1-1.9-.8c-.6-.3-.9-.6-1.3-.8a2.6,2.6,0,0,0-1-.4,1.884,1.884,0,0,0-.8.2,1.205,1.205,0,0,0-.5.5l-1.1,1.8a12.8,12.8,0,0,0,3.9,2.4,13.638,13.638,0,0,0,5.1.9,11.958,11.958,0,0,0,4.4-.7,9.889,9.889,0,0,0,3.2-1.8,7.175,7.175,0,0,0,2-2.8,8.116,8.116,0,0,0,.7-3.5,6.088,6.088,0,0,0-.6-2.8A6.239,6.239,0,0,0,411,91.1Z" fill="#414042"/>
      <path id="Path_1421" data-name="Path 1421" d="M420.3,102.8a6.983,6.983,0,0,0,2.4,1.3,9.476,9.476,0,0,0,3,.4,12.02,12.02,0,0,0,2.8-.3,9.678,9.678,0,0,0,2.4-.8,10.707,10.707,0,0,0,2.1-1.3c.7-.5,1.4-1.1,2.1-1.7l.5,2.5q.15.75.6.9a3.6,3.6,0,0,0,1.1.2h2.1V86.8a14.212,14.212,0,0,0-.6-4.2,8.343,8.343,0,0,0-1.8-3.2,8.125,8.125,0,0,0-3-2.1,10.191,10.191,0,0,0-4-.8,15.754,15.754,0,0,0-5.8,1.1,15.356,15.356,0,0,0-4.9,3.2l.9,1.5a1.167,1.167,0,0,0,.6.6,2.354,2.354,0,0,0,.8.2,2.843,2.843,0,0,0,1.2-.4c.4-.3.9-.6,1.5-1a10.244,10.244,0,0,1,2.1-1,8.475,8.475,0,0,1,2.9-.4,4.8,4.8,0,0,1,4,1.6,7.421,7.421,0,0,1,1.4,4.8v2.1a34.627,34.627,0,0,0-7.8.7,18.328,18.328,0,0,0-5.2,1.9,8.471,8.471,0,0,0-2.9,2.7,5.862,5.862,0,0,0-.9,3.1,7.943,7.943,0,0,0,.6,3.2A7.557,7.557,0,0,0,420.3,102.8Zm3-7.7a5.255,5.255,0,0,1,2.1-1.6,14.46,14.46,0,0,1,3.8-1.1,29.916,29.916,0,0,1,5.6-.4v5.6a10.992,10.992,0,0,1-1.6,1.5,7.844,7.844,0,0,1-1.8,1.1,7.959,7.959,0,0,1-2,.7,16.007,16.007,0,0,1-2.3.3,8.807,8.807,0,0,1-1.7-.2,6.109,6.109,0,0,1-1.4-.7,3.045,3.045,0,0,1-.9-1.3,4.883,4.883,0,0,1-.4-1.9A2.52,2.52,0,0,1,423.3,95.1Z" fill="#414042"/>
      <path id="Path_1422" data-name="Path 1422" d="M467,79.4a8.26,8.26,0,0,0-2.8-2.1,9.374,9.374,0,0,0-3.9-.7,10,10,0,0,0-5,1.2,15.243,15.243,0,0,0-4,3.2l-.4-2.9a1.2,1.2,0,0,0-1.3-1h-2.8v27.2h4.8v-20a12.689,12.689,0,0,1,3.4-2.8,7.674,7.674,0,0,1,4-1,5.352,5.352,0,0,1,4.3,1.7,7.421,7.421,0,0,1,1.4,4.8v17.3h4.8V86.8a14.213,14.213,0,0,0-.6-4.2A11.3,11.3,0,0,0,467,79.4Z" fill="#414042"/>
      <path id="Path_1423" data-name="Path 1423" d="M494.3,64.7V79.8a10.76,10.76,0,0,0-3.2-2.4,9.448,9.448,0,0,0-4.3-.8,11.04,11.04,0,0,0-4.9,1.1,10.668,10.668,0,0,0-3.7,3,13.685,13.685,0,0,0-2.3,4.5,19.932,19.932,0,0,0-.8,5.6,22.463,22.463,0,0,0,.7,6,12.336,12.336,0,0,0,2.1,4.3,8.77,8.77,0,0,0,3.2,2.6,9.582,9.582,0,0,0,4.2.9,9.687,9.687,0,0,0,5.1-1.3,16.074,16.074,0,0,0,4-3.4l.4,3.3a1.2,1.2,0,0,0,1.3,1h2.8V64.7Zm0,31.8a12.725,12.725,0,0,1-3.2,3,7.84,7.84,0,0,1-4.1,1.1,7.306,7.306,0,0,1-3-.6,5.485,5.485,0,0,1-2.2-1.8,8.056,8.056,0,0,1-1.3-3.1,19.953,19.953,0,0,1-.5-4.5,13.069,13.069,0,0,1,2-7.7,6.9,6.9,0,0,1,5.8-2.7,8.116,8.116,0,0,1,3.5.7,8.274,8.274,0,0,1,2.9,2.5l.1,13.1Z" fill="#414042"/>
      <rect id="Rectangle_239" data-name="Rectangle 239" width="4.6" height="26.9" transform="translate(271 77.2)" fill="#414042"/>
      <path id="Path_1424" data-name="Path 1424" d="M272,71.8a2.967,2.967,0,0,0,2.6,0,3.005,3.005,0,0,0,1.8-1.8,2.967,2.967,0,0,0,0-2.6,4.129,4.129,0,0,0-.7-1.1,2.589,2.589,0,0,0-1.1-.7,4.961,4.961,0,0,0-1.3-.3,2.768,2.768,0,0,0-1.3.3,3.591,3.591,0,0,0-1,.7,4.13,4.13,0,0,0-.7,1.1,2.768,2.768,0,0,0-.3,1.3,3.08,3.08,0,0,0,.3,1.3,6.728,6.728,0,0,0,.7,1.1A1.834,1.834,0,0,0,272,71.8Z" fill="#414042"/>
      <rect id="Rectangle_240" data-name="Rectangle 240" width="4.6" height="26.9" transform="translate(327 77.2)" fill="#414042"/>
      <path id="Path_1425" data-name="Path 1425" d="M327,71.1a3.047,3.047,0,0,0,1,.7,2.967,2.967,0,0,0,2.6,0,3.005,3.005,0,0,0,1.8-1.8,2.967,2.967,0,0,0,0-2.6,4.129,4.129,0,0,0-.7-1.1,2.589,2.589,0,0,0-1.1-.7,4.961,4.961,0,0,0-1.3-.3,2.768,2.768,0,0,0-1.3.3,3.591,3.591,0,0,0-1,.7,4.13,4.13,0,0,0-.7,1.1,2.768,2.768,0,0,0-.3,1.3,3.08,3.08,0,0,0,.3,1.3A2.979,2.979,0,0,0,327,71.1Z" fill="#414042"/>
      <path id="Path_1426" data-name="Path 1426" d="M226.7,137.4a5.5,5.5,0,0,0-.9-.7,5.547,5.547,0,0,0,.8-.6,5.717,5.717,0,0,0,.7-.8l10-10.6H233a2.016,2.016,0,0,0-1.1.3,5.008,5.008,0,0,0-.8.7l-8.6,9.2a2.1,2.1,0,0,1-.8.6,2.219,2.219,0,0,1-.9.1h-1.2V112.4h-4.8v39.5h4.8v-13h1.3a3.73,3.73,0,0,1,1.2.2c.3.1.5.4.8.7l8.9,11.1a1.779,1.779,0,0,0,.8.7,2.959,2.959,0,0,0,1,.2h4.3l-10.6-13.4A2.075,2.075,0,0,0,226.7,137.4Z" fill="#414042"/>
      <path id="Path_1427" data-name="Path 1427" d="M261.3,128a10.713,10.713,0,0,0-4.1-2.8,15.08,15.08,0,0,0-10.8,0,11.95,11.95,0,0,0-4.1,2.8,12.834,12.834,0,0,0-2.6,4.4,17.231,17.231,0,0,0-.9,5.8,17.649,17.649,0,0,0,.9,5.8,12.834,12.834,0,0,0,2.6,4.4,11.95,11.95,0,0,0,4.1,2.8,15.27,15.27,0,0,0,5.4,1,13.334,13.334,0,0,0,5.4-1,10.713,10.713,0,0,0,4.1-2.8,12.834,12.834,0,0,0,2.6-4.4,17.231,17.231,0,0,0,.9-5.8,17.649,17.649,0,0,0-.9-5.8A12.834,12.834,0,0,0,261.3,128Zm-3.4,17.7a6.906,6.906,0,0,1-6,2.7,7.546,7.546,0,0,1-3.5-.7,6.93,6.93,0,0,1-2.5-2,7.913,7.913,0,0,1-1.5-3.2,18.8,18.8,0,0,1-.5-4.3,18.143,18.143,0,0,1,.5-4.3,7.914,7.914,0,0,1,1.5-3.2,6.019,6.019,0,0,1,2.5-2,7.824,7.824,0,0,1,3.5-.7,6.906,6.906,0,0,1,6,2.7,12.732,12.732,0,0,1,2,7.6A12.491,12.491,0,0,1,257.9,145.7Z" fill="#414042"/>
      <path id="Path_1428" data-name="Path 1428" d="M304.7,126.8a7.989,7.989,0,0,0-2.8-2,9.2,9.2,0,0,0-3.8-.7,10.024,10.024,0,0,0-5.1,1.3,7.191,7.191,0,0,0-2.1,1.8,9.34,9.34,0,0,0-1.5,2.6,8.16,8.16,0,0,0-2.5-4.1,6.438,6.438,0,0,0-4.5-1.5,7.724,7.724,0,0,0-4.3,1.2,15.93,15.93,0,0,0-3.4,3l-.4-2.8a1.2,1.2,0,0,0-1.3-1h-2.8v27.2H275V131.6a11.412,11.412,0,0,1,2.8-2.6,6.387,6.387,0,0,1,3.3-1,4.393,4.393,0,0,1,3.8,1.6,7.546,7.546,0,0,1,1.3,4.9v17.3H291V134.5a7.782,7.782,0,0,1,.5-2.8,4.644,4.644,0,0,1,1.3-2,6.15,6.15,0,0,1,1.9-1.2,5.7,5.7,0,0,1,2.2-.4,4.851,4.851,0,0,1,4,1.7,7.421,7.421,0,0,1,1.4,4.8v17.3h4.8V134.6a15.1,15.1,0,0,0-.6-4.4A8.488,8.488,0,0,0,304.7,126.8Z" fill="#414042"/>
      <path id="Path_1429" data-name="Path 1429" d="M348.8,126.8a7.989,7.989,0,0,0-2.8-2,9.2,9.2,0,0,0-3.8-.7,10.024,10.024,0,0,0-5.1,1.3,9.1,9.1,0,0,0-2.1,1.8,9.34,9.34,0,0,0-1.5,2.6,8.16,8.16,0,0,0-2.5-4.1,6.438,6.438,0,0,0-4.5-1.5,7.724,7.724,0,0,0-4.3,1.2,15.93,15.93,0,0,0-3.4,3l-.4-2.8a1.2,1.2,0,0,0-1.3-1h-2.8v27.2h4.8V131.6a11.412,11.412,0,0,1,2.8-2.6,6.387,6.387,0,0,1,3.3-1,4.393,4.393,0,0,1,3.8,1.6,7.546,7.546,0,0,1,1.3,4.9v17.3h4.8V134.5a7.781,7.781,0,0,1,.5-2.8,4.644,4.644,0,0,1,1.3-2,6.151,6.151,0,0,1,1.9-1.2,5.7,5.7,0,0,1,2.2-.4,4.851,4.851,0,0,1,4,1.7,7.421,7.421,0,0,1,1.4,4.8v17.3h4.8V134.6a15.1,15.1,0,0,0-.6-4.4A8.487,8.487,0,0,0,348.8,126.8Z" fill="#414042"/>
      <path id="Path_1430" data-name="Path 1430" d="M375.9,144.6a12.689,12.689,0,0,1-3.4,2.8,7.561,7.561,0,0,1-3.9,1,5.494,5.494,0,0,1-4.3-1.7,6.888,6.888,0,0,1-1.4-4.8V124.6h-4.8v17.3a14.212,14.212,0,0,0,.6,4.2,8.823,8.823,0,0,0,1.7,3.2,7.753,7.753,0,0,0,2.9,2.1,9.688,9.688,0,0,0,3.9.7,10,10,0,0,0,5-1.2,14.851,14.851,0,0,0,4-3.1l.4,2.9a1.2,1.2,0,0,0,1.3,1h2.8V124.5h-4.8v20.1Z" fill="#414042"/>
      <path id="Path_1431" data-name="Path 1431" d="M408.6,127a8.261,8.261,0,0,0-2.8-2.1,9.374,9.374,0,0,0-3.9-.7,10,10,0,0,0-5,1.2,15.243,15.243,0,0,0-4,3.2l-.4-3a1.2,1.2,0,0,0-1.3-1h-2.8v27.2h4.8v-20a12.689,12.689,0,0,1,3.4-2.8,7.674,7.674,0,0,1,4-1,5.352,5.352,0,0,1,4.3,1.7,7.422,7.422,0,0,1,1.4,4.8v17.3h4.8V134.5a14.213,14.213,0,0,0-.6-4.2A13,13,0,0,0,408.6,127Z" fill="#414042"/>
      <path id="Path_1432" data-name="Path 1432" d="M436.9,127.3a11.349,11.349,0,0,0-3.6-2.4,10.571,10.571,0,0,0-4-.8,15.015,15.015,0,0,0-5.8,1,11.539,11.539,0,0,0-4,2.8,12.184,12.184,0,0,0-2.5,4.3,15.12,15.12,0,0,0-.9,5.3,17.168,17.168,0,0,0,1,6.2,11.3,11.3,0,0,0,2.7,4.5,11.95,11.95,0,0,0,4.1,2.8,14.561,14.561,0,0,0,5.2.9c1,0,2-.1,3-.2a13.789,13.789,0,0,0,2.9-.8,21.017,21.017,0,0,0,2.6-1.3,7.562,7.562,0,0,0,2.1-1.9l-1.3-1.7a1.05,1.05,0,0,0-.9-.5,1.862,1.862,0,0,0-1.1.4,7.578,7.578,0,0,1-1.6.9c-.6.3-1.4.6-2.2.9a9.336,9.336,0,0,1-3.1.4,9.509,9.509,0,0,1-3.5-.6,8.3,8.3,0,0,1-2.7-1.9,9.89,9.89,0,0,1-1.8-3.2,15.177,15.177,0,0,1-.7-4.5h18.1c.5,0,.8-.1.9-.4a4.871,4.871,0,0,0,.2-1.5,17.177,17.177,0,0,0-.8-5.2A12.441,12.441,0,0,0,436.9,127.3ZM421,135.2a8.59,8.59,0,0,1,2.5-5.5,7.324,7.324,0,0,1,5.4-2,6.527,6.527,0,0,1,2.9.6,5.963,5.963,0,0,1,2.2,1.6,6.983,6.983,0,0,1,1.3,2.4,9.426,9.426,0,0,1,.5,3H421Z" fill="#414042"/>
    </g>
    <path id="Path_1433" data-name="Path 1433" d="M167.3,173.4c6.1-14.3,9.3-31.1,9.3-50V102.9c0-35.3-9.5-62.4-28.2-80.3C135.4,10.2,120.3,4.7,110,2.3A84.607,84.607,0,0,0,90.3,0h-4A83.546,83.546,0,0,0,66.7,2.3C56.4,4.7,41.3,10.2,28.2,22.6,9.5,40.5,0,67.5,0,102.9v20.5c0,18.9,3.1,35.8,9.3,50a86.016,86.016,0,0,0,22.8,31.4,83.811,83.811,0,0,0,13.2,9.3c.3-4.7,4.4-11.7,11.9-11.7,8.3,0,11.2,7.8,11.6,9.8,2.1-6.6,8.5-15.5,19.6-15.5s17.5,8.9,19.6,15.6c.4-2.1,3.3-9.7,11.6-9.8,7.4-.1,11.8,7.3,11.9,11.7a104.577,104.577,0,0,0,13.2-9.3A88.274,88.274,0,0,0,167.3,173.4ZM85.9,192.2a20.564,20.564,0,0,0-17.3,11.6,14.592,14.592,0,0,0-11.9-5.5,14.6,14.6,0,0,0-13.3,8.1,77.594,77.594,0,0,1-7.7-5.8q-2.4-2.1-4.5-4.2c-3.5-4.1-3.6-9.2-.2-15.3a38.972,38.972,0,0,1,3.6-5.2c.4,4.9,2,8.7,4.5,11.4,3.2,3.3,7.9,4.9,14.1,4.9h4.1L55,189.1c-2.9-3.9-4-9.1-3-14.7a23.252,23.252,0,0,1,5-11,19,19,0,0,0,6.1,11.8,18.41,18.41,0,0,0,13.5,4.1l3.2-.4-1.7-2.7a21.3,21.3,0,0,1-1.9-17.1c1.6-4.5,4.9-7.7,9.8-9.7l-.1,42.8Zm0-46.9c-6.8,2.3-11.4,6.6-13.5,12.6a25.463,25.463,0,0,0,.7,17.5,13.5,13.5,0,0,1-7.5-3.2c-3.2-2.7-4.9-7.1-5.1-12.9l-.1-3.5a27.805,27.805,0,0,0-12.3,17.9,23.28,23.28,0,0,0,1.7,14.4,12.357,12.357,0,0,1-7.8-3.5c-2.6-2.8-3.8-7.3-3.5-13.4l.2-4.7s-7.1,5.2-11.1,12.4a22.035,22.035,0,0,0-3,9.8A82.341,82.341,0,0,1,18,178.4c4.2-29.3,23.7-35.6,39.3-40.6,6.2-2,11.6-3.8,15-6.8,8.3-7.3,7.9-16.1,4-21.1-3.2-4.2-8.3-5.2-12.3-2.4-.5.4-8.1,5.8-10.2,7.4l-2.2-2.7a12.7,12.7,0,0,0,4.2-1.8,12.264,12.264,0,0,0,5.9-7.4,9.031,9.031,0,0,0-1-7.2c-2.9-4.8-9.8-6.1-15.4-2.9a11.352,11.352,0,0,0-4.5,4.7L33.9,87.2c-.8-1.4.4-2.6,1.7-3.3a46.252,46.252,0,0,1,11.7-4.6l17.4-.1L58.8,83V80.9H55.5v8.4L71.2,79.2V75.3l-21.4.1a7.73,7.73,0,0,1,1.1-4.8A4.421,4.421,0,0,1,54,68.5H78.8V64.6H58V49.4l7.1,7.5L76.8,42.2,86,52.6v92.7ZM44.8,107.2l.6-.3c2.5-1.1,9.8-5.4,12.7-7.2a7.652,7.652,0,0,1-3.6,7.2c-3.7,2.4-8.3,1.7-10.8.7A4.874,4.874,0,0,0,44.8,107.2Zm-2.6-2.9c.6-2.5,2.2-6.2,5.1-8,3-1.8,6.8-1.7,9,.2-2.7,1.7-10,6-12.4,7C43.9,103.5,42.5,104.1,42.2,104.3Zm46-66.4a17.711,17.711,0,0,1-3.7-4.8h0c-1.2-2.8-2.1-7.5,3.8-16.4,4.4,5.4,5.4,10.6,3.1,15.8A40.458,40.458,0,0,1,88.2,37.9Zm52.7,162.7c-2.5,2.1-5.1,4.1-7.6,5.8h-.1a14.428,14.428,0,0,0-13.3-8.1c-5,0-9.3,2-11.9,5.5-2.9-6.4-9.5-10.9-17.3-11.6v-18l4.9-3.7,6.9,1.9a27.477,27.477,0,0,0,3.8,4.1,11.459,11.459,0,0,0,7.4,2.8,17.749,17.749,0,0,0,8-2.3l2-1.1-1.4-1.8c-4.7-6.1-9.1-8.6-13.7-7.9h0a18.434,18.434,0,0,0-5.3,2.3l-3.7-1,11-8.2,8.8,3.1a47.391,47.391,0,0,0,5.1,5.2,13.736,13.736,0,0,0,8.4,3,20.242,20.242,0,0,0,10.2-3.3l1.9-1.2-1.5-1.8c-6.1-7.2-11.4-10-16.9-8.9-2.2.4-4.8,2.2-6.2,3.1l-6-2.1,6.1-4.6a48.836,48.836,0,0,0,9.9-1.8c8.6-2.8,13.5-10,14.7-21.4l.2-2.4-2.4.2c-12.7,1.3-20.1,5.1-23.3,12.2-1.4,3-1.7,8-1.8,10.2l-13.3,10,1.9-7.7a41.978,41.978,0,0,0,5.4-5.2c4.5-5.6,4.5-12.4,0-20.1l-1.2-2-1.8,1.5c-7.8,6.4-11,12.2-9.9,18.1.5,2.6,2.6,5.8,3.5,7.2l-2.9,11.9-8.9,6.6V119.7l14.3-10.6,6.4,2.3a39.2,39.2,0,0,0,5.8,5.7,14.867,14.867,0,0,0,9,3.1c4.2,0,8.2-1.8,11.3-3.8l1.9-1.2-1.5-1.7c-6.8-7.8-12.7-10.8-18.7-9.5-2.4.5-5.3,2.5-6.8,3.6l-3.5-1.2,13.4-9.9,6.9,2.4a43.9,43.9,0,0,0,5.3,5.3,14.654,14.654,0,0,0,9.1,3.2,21.887,21.887,0,0,0,11.2-3.6l1.9-1.2-1.5-1.8c-6.7-7.9-12.6-11-18.5-9.7-2.6.5-5.8,2.7-7.2,3.7l-3.5-1.2,4.9-3.6a57.145,57.145,0,0,0,10.1-1.8c8.9-2.8,14-10.2,15.1-22l.2-2.4-2.4.2c-13.1,1.3-20.7,5.3-24.1,12.5-1.5,3.2-1.8,8.4-1.8,10.6l-9.7,7.1,1.3-7.2a33.068,33.068,0,0,0,4.4-4.9c4.3-6.2,1.7-12.7-1.2-16.9l-1.3-2-1.7,1.6c-6.1,5.8-8.3,10.8-7.1,15.8a16.483,16.483,0,0,0,3,5.4l-2,11.5-12.5,9.2,1.3-5.7a43.12,43.12,0,0,0,4.7-4.8c4.2-5.6,4.1-12.3-.5-19.8l-1.2-2-1.8,1.5c-7.4,6.5-10.3,12.2-9.2,18,.6,2.8,3.1,6.3,3.8,7.4l-2,9-5.9,4.4V71.2l7.8-7.9a35.705,35.705,0,0,0,7.2-1.3q9.75-3.15,11.1-15.9l.2-2.4-2.4.2c-9.4.9-15,3.8-17.4,9.1a20.511,20.511,0,0,0-1.3,7.3l-5.1,5.2V41.2a42.82,42.82,0,0,0,4.3-7c3.2-7.2,1.4-14.6-5.4-21.9L88,10.5l-1.4,1.9c-6.6,9-8.4,16.1-5.7,22.3a23.337,23.337,0,0,0,5,6.4v5.5L76.6,36,64.8,50.9,54,39.6v25a8.356,8.356,0,0,0-6.4,3.9,12.082,12.082,0,0,0-1.7,7.1c-1.5.4-3.8,1.1-6.2,2-5.9,2.2-9.2,4.4-10.1,6.9a4.61,4.61,0,0,0,.5,4.1l10.8,16.2c-3.5,1.3-6.8,1.7-9.4-1.6l-2.9,2.3a9.8,9.8,0,0,0,8,4,17.727,17.727,0,0,0,6.4-1.4l10,12.5s12.5-9.1,13.3-9.7c2.6-1.8,5.4-.5,7,1.6,4,5.2,1,11.8-3.5,15.7-2.8,2.5-7.8,4.1-13.7,6-14.9,4.8-34.9,11.3-41,38.5-.2-.5-.4-.9-.6-1.4-5.8-13.6-8.8-29.7-8.8-47.8V103c0-33.7,8.9-59.4,26.5-76.2C53.1,6.6,80.2,5.6,85.3,5.6h5.1c.3,0,30.8-1.1,54,21C162,43.5,171,69.1,171,102.9v20.5c0,18.2-3,34.2-8.8,47.8A81.347,81.347,0,0,1,140.9,200.6Zm-34.3-29.5a9.127,9.127,0,0,1,2.6-1.1c1.7-.3,4.3,0,8.3,4.5-3.4,1.3-6.3,1-8.7-1.1A24.423,24.423,0,0,1,106.6,171.1Zm2.9-41.1c2.5,5.3,2.2,9.7-.8,13.5a33.208,33.208,0,0,1-3.8,3.7,13.948,13.948,0,0,1-2.1-4.5C102.4,140.2,102.6,136.2,109.5,130Zm14.2,31.1a12.2,12.2,0,0,1,3.8-1.9c2.2-.5,5.8-.3,11.5,5.8q-6.9,3.45-12-.6A34.259,34.259,0,0,1,123.7,161.1Zm-1.8-13.4a24.362,24.362,0,0,1,1.3-7.4c1.5-3.3,5.1-7.9,17.7-9.6-1.4,8.4-5.2,13.5-11.6,15.5A44.163,44.163,0,0,1,121.9,147.7ZM98.6,93.4c-.5-2.5-.4-6.4,6.1-12.6,2.5,5.1,2.3,9.4-.5,13.2a40.437,40.437,0,0,1-3.5,3.7A15.318,15.318,0,0,1,98.6,93.4Zm17,16.9a14.765,14.765,0,0,1,4.5-2.3c2.6-.6,6.6-.4,13.2,6.4-5.3,2.8-9.8,2.6-13.7-.3A24.2,24.2,0,0,1,115.6,110.3Zm5.5-40.6c2,3.9,2,7.3-.1,10.4a32.266,32.266,0,0,1-2.5,2.9,20.031,20.031,0,0,1-1.7-3.1C116.3,77.9,116.3,74.8,121.1,69.7Zm12,27.7a17.46,17.46,0,0,1,4.5-2.3c2.6-.5,6.6-.3,13.1,6.6-5.3,2.7-9.8,2.5-13.7-.5A28.092,28.092,0,0,1,133.1,97.4ZM132.2,86c.1-2.4.5-5.8,1.4-7.7,1.6-3.5,5.3-8.2,18.4-9.9-1.4,8.7-5.4,14-12.1,16.2A43.143,43.143,0,0,1,132.2,86ZM99.8,59.2a13.131,13.131,0,0,1,.9-4.4c1-2.2,3.4-5.2,11.7-6.5-1.1,5.4-3.7,8.6-8,10A37.346,37.346,0,0,1,99.8,59.2Z" fill="#414042"/>
  </g>
</svg>
